<?xml version="1.0" encoding="UTF-8" standalone="no"?>
<svg xmlns="http://www.w3.org/2000/svg" version="1.1" viewBox="0.00 0.00 1124.00 881.00">
<path fill="#5e361c" d="
  M 285.12 0.00
  L 313.02 0.00
  Q 336.65 2.41 355.01 8.28
  Q 405.33 24.38 445.98 59.69
  C 476.19 85.94 501.32 117.84 521.07 152.64
  Q 550.45 204.43 565.94 263.63
  Q 567.14 268.24 568.55 272.73
  A 1.50 1.49 -29.6 0 1 568.12 274.28
  Q 502.84 332.11 458.16 402.66
  C 418.08 465.95 390.59 537.11 383.16 610.82
  C 377.59 666.08 384.45 722.21 407.55 772.55
  A 1.32 1.32 0.0 0 1 407.03 774.24
  Q 370.86 795.89 329.87 803.60
  Q 328.68 803.83 328.98 802.65
  Q 342.72 749.02 350.96 695.20
  Q 357.69 651.28 359.10 607.46
  C 360.69 558.31 355.40 508.26 342.16 460.47
  Q 331.86 423.25 315.13 383.46
  C 304.01 356.98 292.66 330.19 282.93 303.02
  Q 275.29 281.67 269.23 257.73
  Q 253.25 194.62 257.95 128.99
  C 261.02 86.23 269.91 44.28 282.45 3.80
  Q 282.84 2.55 283.01 1.09
  Q 283.07 0.60 283.56 0.52
  Q 284.41 0.38 285.12 0.00
  Z"
/>
<path fill="#5e361c" d="
  M 303.71 806.64
  C 186.59 812.29 97.16 726.17 49.57 627.39
  C 25.45 577.32 10.48 523.04 4.21 468.25
  Q 1.74 446.65 0.49 421.75
  C -0.66 398.61 0.72 371.43 3.37 345.41
  C 12.65 254.50 44.81 163.91 104.23 93.88
  Q 120.62 74.56 140.75 57.58
  C 175.04 28.67 215.01 8.65 259.00 1.55
  Q 261.45 1.16 263.87 1.00
  Q 264.50 0.96 264.30 1.57
  Q 242.37 66.53 230.34 131.16
  Q 222.50 173.26 221.68 216.43
  Q 220.52 277.45 238.48 336.26
  C 248.21 368.13 260.54 397.43 273.62 428.67
  C 287.74 462.42 300.51 498.23 309.40 534.30
  C 322.71 588.34 326.54 644.43 322.00 699.90
  Q 317.66 752.93 304.47 806.02
  A 0.83 0.82 5.7 0 1 303.71 806.64
  Z"
/>
<path fill="#5e361c" d="
  M 746.65 516.33
  C 732.37 551.27 718.03 584.61 699.98 617.16
  C 671.50 668.51 634.51 714.72 590.56 753.39
  Q 544.73 793.71 493.99 824.10
  Q 493.08 824.65 492.29 823.94
  Q 483.15 815.68 476.09 807.78
  Q 445.76 773.83 430.82 728.67
  C 409.47 664.15 415.40 592.90 436.05 528.43
  C 458.95 456.97 500.34 390.79 552.72 335.50
  C 626.16 257.99 721.88 199.83 827.75 182.47
  Q 833.51 181.53 848.74 179.94
  Q 899.00 174.69 946.51 185.65
  Q 994.34 196.69 1033.43 225.77
  Q 1034.70 226.71 1033.28 227.42
  C 984.91 251.73 937.46 279.43 895.12 311.77
  Q 861.29 337.60 834.21 367.21
  Q 805.25 398.87 783.61 437.26
  C 769.43 462.41 757.66 489.34 746.65 516.33
  Z"
/>
<path fill="#5e361c" d="
  M 695.64 881.00
  L 623.50 881.00
  C 584.24 876.60 545.63 863.17 513.14 840.57
  A 0.64 0.64 0.0 0 1 513.17 839.50
  C 590.93 792.58 666.37 738.89 723.62 667.19
  C 747.18 637.68 766.99 605.21 783.58 570.05
  Q 792.51 551.13 800.20 532.21
  Q 812.85 501.12 824.79 473.59
  Q 836.34 446.94 850.10 422.39
  Q 881.81 365.82 928.55 322.53
  C 964.34 289.38 1005.45 262.25 1048.93 239.67
  A 1.10 1.09 -36.7 0 1 1050.18 239.85
  Q 1084.31 272.03 1102.42 315.50
  C 1116.45 349.21 1122.47 385.75 1122.12 422.45
  C 1121.43 493.75 1097.90 564.30 1061.29 627.02
  C 1019.11 699.26 958.20 762.81 887.97 808.70
  C 829.49 846.90 764.29 873.04 695.64 881.00
  Z"
/>
</svg>
