<svg xmlns="http://www.w3.org/2000/svg" version="1.1" viewBox="0.00 0.00 1262.00 1159.00">
<path fill="#ffffff" fill-opacity="8%" d="
  M 670.98 83.41
  Q 676.51 156.55 647.57 223.48
  C 611.08 307.83 539.79 368.10 482.28 437.74
  Q 467.79 455.29 456.23 472.77
  Q 451.60 479.76 448.21 482.37
  C 433.83 493.42 413.00 487.65 407.14 470.45
  C 404.17 461.71 405.98 453.02 411.16 445.46
  Q 435.96 409.26 465.69 376.35
  Q 491.82 347.42 519.28 317.45
  Q 528.78 307.08 542.13 291.13
  C 567.96 260.24 590.73 227.23 604.27 190.71
  Q 617.69 154.51 619.17 117.68
  Q 620.32 88.90 615.54 59.18
  Q 615.28 57.58 613.69 57.31
  C 607.19 56.23 600.75 55.15 594.20 54.86
  C 589.34 54.65 584.61 54.24 579.75 54.52
  C 573.90 54.86 568.09 55.04 562.29 55.90
  C 557.98 56.55 553.53 57.08 549.30 57.98
  C 517.78 64.73 487.89 79.05 461.43 97.89
  C 417.31 129.31 381.15 171.62 352.73 217.99
  Q 321.96 268.20 303.10 322.29
  Q 288.80 363.32 283.70 407.07
  C 281.93 422.29 269.16 432.81 253.78 430.70
  Q 244.42 429.42 237.90 422.05
  Q 233.70 417.31 232.09 410.96
  Q 230.94 406.41 231.59 401.14
  Q 237.45 353.59 251.17 312.07
  C 260.10 285.02 271.25 258.96 284.03 233.55
  C 311.20 179.57 345.70 131.05 388.54 90.21
  C 438.16 42.91 499.20 8.37 566.99 2.77
  C 571.29 2.41 575.51 2.48 579.82 2.18
  Q 584.25 1.88 588.61 2.22
  C 592.50 2.53 596.50 2.38 600.44 2.77
  Q 626.37 5.34 645.49 11.24
  C 716.87 33.25 762.91 96.33 784.19 165.35
  Q 797.95 209.99 799.58 257.73
  C 800.01 270.28 800.07 284.40 799.34 296.74
  Q 795.50 362.05 773.65 423.15
  Q 756.09 472.24 728.97 519.35
  Q 690.24 586.60 637.05 636.67
  C 631.32 642.06 625.49 647.03 617.59 648.08
  C 604.18 649.86 592.59 642.61 588.51 629.58
  Q 587.35 625.86 587.88 618.62
  Q 588.46 610.62 594.78 604.31
  C 602.53 596.55 610.76 589.27 618.45 581.09
  C 655.30 541.87 684.42 496.85 706.91 448.00
  Q 723.40 412.20 732.98 378.00
  Q 747.71 325.39 747.56 272.85
  C 747.54 266.06 747.11 259.24 746.89 252.44
  Q 746.70 246.33 745.95 240.59
  C 745.27 235.35 744.99 230.13 744.17 224.83
  C 738.66 189.09 727.40 154.12 708.17 124.26
  Q 692.61 100.11 671.46 83.16
  Q 670.93 82.74 670.98 83.41
  Z"
/>
<path fill="#ffffff" fill-opacity="8%" d="
  M 1232.44 859.98
  Q 1214.14 906.44 1185.63 948.99
  C 1153.22 997.34 1114.15 1041.27 1069.21 1076.99
  C 1014.92 1120.14 950.09 1152.55 880.68 1157.45
  Q 874.30 1157.90 867.39 1157.82
  C 861.51 1157.76 855.44 1157.89 849.59 1157.53
  Q 806.31 1154.87 768.09 1136.27
  C 737.83 1121.54 712.93 1099.43 693.97 1071.04
  C 677.32 1046.11 666.03 1017.71 659.58 988.90
  Q 649.74 944.97 652.46 897.56
  Q 652.88 890.29 653.68 881.67
  Q 654.42 873.61 655.52 865.95
  C 664.28 804.97 686.42 746.91 719.33 694.52
  C 759.75 630.15 811.90 573.52 874.48 531.47
  C 909.96 507.62 949.84 488.94 991.11 479.39
  Q 1006.92 475.73 1024.12 473.94
  C 1071.06 469.08 1117.79 477.93 1158.41 501.49
  C 1201.32 526.38 1230.39 568.26 1246.24 615.16
  Q 1254.88 640.75 1258.93 671.53
  Q 1260.03 679.87 1260.08 686.37
  Q 1260.27 709.08 1260.12 735.67
  Q 1260.06 745.95 1258.95 755.21
  Q 1252.52 808.99 1232.44 859.98
  Z
  M 749.48 1047.92
  Q 759.44 979.30 799.85 922.00
  Q 820.73 892.39 850.78 864.85
  C 872.18 845.23 894.82 827.75 919.15 810.14
  Q 947.10 789.92 973.02 770.98
  Q 1002.33 749.57 1029.10 725.11
  C 1066.01 691.39 1094.82 648.72 1107.02 599.64
  Q 1114.45 569.75 1115.35 539.25
  Q 1115.38 538.31 1114.51 537.95
  Q 1072.88 520.80 1026.87 526.29
  C 996.48 529.91 967.05 539.99 939.72 553.91
  C 904.66 571.77 872.51 595.82 844.27 623.10
  Q 797.34 668.45 762.60 724.28
  C 731.63 774.06 711.52 830.02 705.56 888.36
  Q 704.95 894.38 704.74 900.51
  Q 704.55 906.33 704.36 911.89
  Q 703.97 923.32 705.25 941.86
  Q 706.48 959.47 711.43 980.40
  C 717.93 1007.82 729.88 1034.21 747.91 1055.60
  Q 748.31 1056.07 748.39 1055.47
  Q 748.93 1051.68 749.48 1047.92
  Z
  M 828.14 1101.86
  Q 838.23 1103.89 841.29 1104.24
  C 855.67 1105.85 870.78 1106.10 885.05 1104.53
  C 923.35 1100.30 961.10 1085.35 994.49 1065.19
  C 1047.99 1032.89 1093.74 987.13 1131.28 935.31
  Q 1149.39 910.32 1163.08 884.95
  Q 1193.95 827.77 1204.46 766.23
  Q 1205.99 757.25 1207.01 747.85
  Q 1208.46 734.52 1208.68 729.92
  Q 1209.42 714.69 1208.75 699.27
  C 1207.32 666.47 1199.94 633.60 1184.80 604.23
  Q 1178.35 591.72 1171.28 582.60
  Q 1168.93 579.58 1166.68 576.28
  Q 1165.11 573.98 1164.74 576.74
  Q 1162.06 596.97 1156.39 617.86
  C 1143.85 664.07 1119.82 705.68 1087.00 741.24
  Q 1065.14 764.92 1039.34 785.83
  Q 1016.84 804.05 1000.91 815.58
  Q 968.62 838.95 937.23 861.98
  C 915.25 878.11 893.59 895.75 874.00 915.35
  Q 851.18 938.18 834.94 964.00
  Q 809.44 1004.52 801.61 1053.20
  Q 798.47 1072.69 797.85 1090.65
  Q 797.80 1092.22 799.22 1092.81
  Q 814.15 1099.05 828.14 1101.86
  Z"
/>
<path fill="#ffffff" fill-opacity="8%" d="
  M 356.20 510.82
  C 400.64 533.57 440.68 564.55 474.51 601.19
  C 501.29 630.19 525.45 663.43 546.47 699.01
  Q 579.27 754.50 597.01 814.09
  Q 609.38 855.64 612.57 896.48
  Q 613.85 912.86 613.49 932.39
  C 612.25 998.19 587.50 1064.19 537.73 1107.64
  C 503.46 1137.55 458.50 1153.00 412.81 1154.63
  C 304.94 1158.48 202.92 1099.33 133.23 1020.35
  Q 84.99 965.68 51.16 899.25
  C 21.94 841.89 3.11 779.20 0.92 715.30
  Q -0.64 669.73 11.25 627.58
  Q 23.94 582.60 52.74 546.56
  Q 92.16 497.22 154.70 481.21
  Q 167.67 477.89 183.50 475.73
  Q 188.16 475.10 192.23 474.98
  C 196.34 474.87 200.48 474.39 204.61 474.29
  Q 237.44 473.50 269.60 480.23
  Q 314.99 489.71 356.20 510.82
  Z
  M 557.91 878.73
  Q 552.55 844.55 541.61 812.85
  C 520.33 751.13 485.90 693.80 443.03 644.59
  C 407.56 603.88 362.84 570.18 314.07 549.05
  C 282.89 535.54 250.23 527.31 216.53 526.55
  C 189.93 525.94 164.25 530.83 139.94 541.92
  Q 139.42 542.16 139.93 542.40
  Q 147.63 545.98 155.45 550.01
  Q 205.39 575.76 240.77 617.37
  C 275.74 658.50 297.93 707.60 315.90 758.77
  Q 326.64 789.36 338.98 826.73
  Q 345.52 846.53 353.89 869.06
  C 367.34 905.23 383.49 939.25 406.94 969.31
  Q 434.27 1004.36 472.06 1026.38
  Q 493.96 1039.14 519.09 1047.94
  C 520.49 1048.43 521.58 1048.81 522.62 1047.45
  Q 545.33 1017.86 554.47 981.02
  C 562.74 947.71 563.19 912.42 557.91 878.73
  Z
  M 359.18 1098.43
  C 393.45 1104.98 429.55 1104.28 461.96 1092.35
  Q 468.26 1090.04 474.86 1087.10
  A 0.15 0.15 0.0 0 0 474.86 1086.83
  C 438.68 1070.20 406.56 1047.88 380.20 1018.98
  C 351.55 987.56 330.42 950.43 313.96 910.56
  C 298.45 872.98 286.20 834.38 273.20 795.49
  C 256.64 745.99 237.15 695.88 204.08 655.41
  Q 174.60 619.32 133.61 597.80
  Q 114.73 587.89 94.07 580.62
  A 1.44 1.43 -60.4 0 0 92.49 581.06
  Q 88.51 585.86 85.10 591.01
  Q 64.49 622.11 57.51 659.31
  Q 52.66 685.16 53.11 709.57
  C 54.08 763.05 69.55 816.47 92.78 865.00
  Q 125.86 934.07 177.06 990.65
  C 204.32 1020.76 236.70 1046.47 271.79 1065.98
  C 299.28 1081.26 329.05 1092.68 359.18 1098.43
  Z"
/>
</svg>
